<svg xmlns="http://www.w3.org/2000/svg" xmlns:xlink="http://www.w3.org/1999/xlink" version="1.1" id="圖層_1" x="0px" y="0px" viewBox="0 0 100 100" enable-background="new 0 0 100 100" xml:space="preserve" width="100"  height="100" ><g><g><path fill="#F7ADB3" stroke="#000000" stroke-width="3" stroke-linecap="round" stroke-linejoin="round" stroke-miterlimit="10" d=" M50.95,30.27l7.6-7.99L50.95,30.27z"/><ellipse transform="matrix(0.6544 -0.7562 0.7562 0.6544 4.2153 52.3196)" stroke="#000000" stroke-width="3" stroke-linecap="round" stroke-linejoin="round" stroke-miterlimit="10" cx="59.34" cy="21.55" rx="1.94" ry="0.97"/></g><g><path fill="#F7ADB3" stroke="#000000" stroke-width="3" stroke-linecap="round" stroke-linejoin="round" stroke-miterlimit="10" d=" M49.16,30.27l-7.6-7.99L49.16,30.27z"/><ellipse transform="matrix(0.7562 -0.6544 0.6544 0.7562 -4.1604 31.9318)" stroke="#000000" stroke-width="3" stroke-linecap="round" stroke-linejoin="round" stroke-miterlimit="10" cx="40.77" cy="21.55" rx="0.97" ry="1.94"/></g><path stroke="#000000" stroke-width="3" stroke-linecap="round" stroke-linejoin="round" stroke-miterlimit="10" d="M51.38,45.81 v-8.09c0.33-1.18,0.53-2.77,0.53-4.52c0-3.62-0.86-6.55-1.91-6.55s-1.91,2.93-1.91,6.55c0,1.76,0.2,3.35,0.53,4.52v8.09 c-0.39,3.59-0.64,8.68-0.64,14.33C47.98,71,48.88,79.8,50,79.8s2.02-8.8,2.02-19.66C52.02,54.49,51.78,49.39,51.38,45.81z"/></g><path fill="#F7ADB3" stroke="#000000" stroke-width="3" stroke-linecap="round" stroke-linejoin="round" stroke-miterlimit="10" d=" M11.13,59.7c-0.22,0.53-3.14,7.78,1.18,14.23c0.67,0.99,3.75,5.32,8.82,6.02c7.52,1.04,13.63-6.61,18.39-12.59 c3.42-4.29,11.37-14.26,8.26-18.81c-3.05-4.46-14.89-0.99-19.54,0.37C21.11,51.02,13.93,53.08,11.13,59.7z"/><path fill="#F7ADB3" stroke="#000000" stroke-width="3" stroke-linecap="round" stroke-linejoin="round" stroke-miterlimit="10" d=" M31.15,59.48c0.65,0.07,9.47,0.83,15.06-5.92c0.86-1.04,4.55-5.77,3.65-11.46c-1.33-8.43-11.63-12.5-19.68-15.67 c-5.78-2.28-19.21-7.57-23.12-2.74c-3.84,4.74,3.79,16.34,6.8,20.9C18.45,51.58,23.04,58.64,31.15,59.48z"/><path fill="#F7ADB3" stroke="#000000" stroke-width="3" stroke-linecap="round" stroke-linejoin="round" stroke-miterlimit="10" d=" M88.87,59.7c0.22,0.53,3.14,7.78-1.18,14.23c-0.67,0.99-3.75,5.32-8.82,6.02C71.36,81,65.25,73.34,60.48,67.37 c-3.42-4.29-11.37-14.26-8.26-18.81c3.05-4.46,14.89-0.99,19.54,0.37C78.89,51.02,86.07,53.08,88.87,59.7z"/><path fill="#F7ADB3" stroke="#000000" stroke-width="3" stroke-linecap="round" stroke-linejoin="round" stroke-miterlimit="10" d=" M68.85,59.48c-0.65,0.07-9.47,0.83-15.06-5.92c-0.86-1.04-4.55-5.77-3.65-11.46c1.33-8.43,11.63-12.5,19.68-15.67 c5.78-2.28,19.21-7.57,23.12-2.74c3.84,4.74-3.79,16.34-6.8,20.9C81.55,51.58,76.96,58.64,68.85,59.48z"/><metadata xmlns:d="https://loading.io/stock/">
<d:name>insect</d:name>
<d:tags>insect,butterfly,bug,animal,biology,lepidoptera</d:tags>
<d:license>by</d:license>
<d:slug>6s1amb</d:slug>
</metadata></svg>