<svg xmlns="http://www.w3.org/2000/svg" xmlns:xlink="http://www.w3.org/1999/xlink" version="1.1" id="圖層_1" x="0px" y="0px" viewBox="0 0 100 100" enable-background="new 0 0 100 100" xml:space="preserve" width="100"  height="100" ><g><circle fill="#333435" cx="29.28" cy="21.64" r="13.28"/><circle fill="#333435" cx="70.72" cy="21.64" r="13.28"/></g><g><path fill="#333435" d="M16,21.64v42.97v10.45c0,9.16,7.43,16.59,16.59,16.59h34.83c9.16,0,16.59-7.43,16.59-16.59V64.61V21.64H16z "/><ellipse fill="#F4E6C8" cx="50" cy="56.81" rx="16.94" ry="14.3"/><path fill="#FFFFFF" d="M76.17,69.61c-5.71,4.52-11,7.06-14.62,8.49c-0.04,0.02-0.08,0.03-0.12,0.05c-7.34,2.91-15.52,2.91-22.86,0 c-0.04-0.02-0.08-0.03-0.12-0.05c-3.62-1.43-8.91-3.97-14.62-8.49c-0.01,0-0.02,0-0.03,0c0.63,1.1,1.49,2.46,2.65,3.91 c0.44,0.55,1.92,2.37,4.39,4.46c4.38,3.72,8.59,5.53,9.48,5.91c2.59,1.09,5.6,2.5,9.83,2.5s6.93-1.41,9.53-2.5 c0.89-0.38,5.1-2.19,9.48-5.91c2.47-2.1,3.96-3.92,4.39-4.46c1.15-1.45,2.02-2.81,2.65-3.91C76.19,69.61,76.18,69.61,76.17,69.61z"/></g><g><path fill="none" stroke="#000000" stroke-width="3.5" stroke-linecap="round" stroke-miterlimit="10" d="M40,57.99 c4.08,5.65,5.27,2.51,8.61,0.41c0.82-0.52,2.01-0.59,2.78,0c2.75,2.1,4.52,5.24,8.61-0.41"/><line fill="none" stroke="#000000" stroke-width="3.5" stroke-linecap="round" stroke-miterlimit="10" x1="50" y1="50.75" x2="50" y2="57.99"/><ellipse cx="50" cy="50.21" rx="5" ry="3.98"/></g><g><circle fill="#FFFFFF" cx="65.53" cy="36.88" r="6.5"/><circle cx="65.53" cy="36.86" r="4.11"/></g><g><circle fill="#FFFFFF" cx="34.43" cy="36.88" r="6.5"/><circle cx="34.43" cy="36.86" r="4.11"/></g><g><ellipse fill="#C97880" cx="74.83" cy="46.22" rx="3.63" ry="1.99"/><ellipse fill="#C97880" cx="25.13" cy="46.22" rx="3.63" ry="1.99"/></g><metadata xmlns:d="https://loading.io/stock/">
<d:name>animal</d:name>
<d:tags>animal,bear,taiwan,black,wild,cute</d:tags>
<d:license>by</d:license>
<d:slug>ol3rh6</d:slug>
</metadata></svg>