<svg xmlns="http://www.w3.org/2000/svg" xmlns:xlink="http://www.w3.org/1999/xlink" version="1.1" id="圖層_1" x="0px" y="0px" viewBox="0 0 100 100" enable-background="new 0 0 100 100" xml:space="preserve" width="100"  height="100" ><g><circle fill="#F7B26A" cx="29.28" cy="20.14" r="13.28"/><circle fill="#FFFFFF" cx="29.28" cy="20.14" r="7.24"/></g><g><circle fill="#F7B26A" cx="70.72" cy="20.14" r="13.28"/><ellipse transform="matrix(0.7071 -0.7071 0.7071 0.7071 6.475 55.9078)" fill="#FFFFFF" cx="70.72" cy="20.14" rx="7.24" ry="7.24"/></g><g><path fill="#F7B26A" d="M84,63.11V20.14H16v42.97c9.45-7.98,20.66-12.79,34-12.79S74.55,55.13,84,63.11z"/><path fill="#FFF7E9" d="M32.59,90.14h34.83c9.16,0,16.59-7.43,16.59-16.59V63.11c-9.45-7.98-20.66-12.79-34-12.79 s-24.55,4.82-34,12.79v10.45C16,82.71,23.43,90.14,32.59,90.14z"/></g><g><path fill="none" stroke="#000000" stroke-width="3.5" stroke-linecap="round" stroke-miterlimit="10" d="M34.05,62.17 c6.51,9.43,8.4,4.19,13.73,0.68c1.31-0.86,3.21-0.99,4.44,0c4.39,3.51,7.22,8.75,13.73-0.68"/><path d="M55.74,49.58c0,3.17-2.57,5.74-5.74,5.74s-5.74-2.57-5.74-5.74s2.57-3.41,5.74-3.41S55.74,46.41,55.74,49.58z"/></g><g><path fill="#FFFFFF" d="M66.02,30.42v-0.85c0-1.13-0.92-2.05-2.05-2.05h-3.15c-1.13,0-2.05,0.92-2.05,2.05v0.85 c0,1.13,0.92,2.05,2.05,2.05h3.15C65.1,32.47,66.02,31.55,66.02,30.42z"/><circle cx="65.86" cy="41.37" r="5.5"/></g><g><path fill="#FFFFFF" d="M33.98,30.42v-0.85c0-1.13,0.92-2.05,2.05-2.05h3.15c1.13,0,2.05,0.92,2.05,2.05v0.85 c0,1.13-0.92,2.05-2.05,2.05h-3.15C34.9,32.47,33.98,31.55,33.98,30.42z"/><circle cx="33.98" cy="41.37" r="5.5"/></g><metadata xmlns:d="https://loading.io/stock/">
<d:name>animal</d:name>
<d:tags>animal,dog,cute,pet,puppy,mammals</d:tags>
<d:license>by</d:license>
<d:slug>yf8na7</d:slug>
</metadata></svg>