<svg xmlns="http://www.w3.org/2000/svg" xmlns:xlink="http://www.w3.org/1999/xlink" version="1.1" id="圖層_1" x="0px" y="0px" viewBox="0 0 100 100" enable-background="new 0 0 100 100" xml:space="preserve" width="100"  height="100" ><path fill="#849B87" d="M16,20.64v42.97v10.45c0,9.16,7.43,16.59,16.59,16.59h34.83c9.16,0,16.59-7.43,16.59-16.59V63.61V20.64H16z"/><g><circle fill="#849B87" cx="70.72" cy="20.64" r="13.28"/><circle fill="#FFFFFF" cx="70.72" cy="20.64" r="7.24"/><path d="M66.22,20.64c0,2.49,2.18,3.22,4.69,3.22s4.31-0.74,4.31-3.22s-1.8-3.22-4.31-3.22S66.22,18.15,66.22,20.64z"/></g><g><circle fill="#849B87" cx="29.28" cy="20.64" r="13.28"/><circle fill="#FFFFFF" cx="29.28" cy="20.64" r="7.24"/><path d="M33.78,20.64c0,2.49-2.18,3.22-4.69,3.22s-4.31-0.74-4.31-3.22s1.8-3.22,4.31-3.22S33.78,18.15,33.78,20.64z"/></g><g><path fill="none" stroke="#44635E" stroke-width="3.5" stroke-linecap="round" stroke-linejoin="round" stroke-miterlimit="10" d=" M23.62,38.85c0,0,19.87,2.64,25.12,5.21c0.75,0.37,1.65,0.37,2.38-0.03c5-2.74,24.98-5.18,24.98-5.18"/><line fill="none" stroke="#44635E" stroke-width="3.5" stroke-linecap="round" stroke-linejoin="round" stroke-miterlimit="10" x1="46.67" y1="34.41" x2="46.67" y2="37"/><line fill="none" stroke="#44635E" stroke-width="3.5" stroke-linecap="round" stroke-linejoin="round" stroke-miterlimit="10" x1="53.33" y1="34.41" x2="53.33" y2="37"/></g><path fill="#D8E2BC" d="M69.16,54.48c-5.83-2.84-12.37-4.44-19.29-4.44s-13.47,1.6-19.29,4.44c-4.62,2.25-9.53,3.83-14.57,4.61v4.52 v10.45c0,9.16,7.43,16.59,16.59,16.59h34.83c9.16,0,16.59-7.43,16.59-16.59V63.61v-4.47C78.86,58.37,73.86,56.78,69.16,54.48z"/><g><path fill="#689991" d="M69.22,32.48c0,1.93,1.7,2.51,3.65,2.51c1.95,0,3.35-0.57,3.35-2.51s-1.4-2.51-3.35-2.51 C70.92,29.98,69.22,30.55,69.22,32.48z"/><path fill="#689991" d="M30.78,32.48c0,1.93-1.7,2.51-3.65,2.51s-3.35-0.57-3.35-2.51s1.4-2.51,3.35-2.51S30.78,30.55,30.78,32.48z "/></g><metadata xmlns:d="https://loading.io/stock/">
<d:name>animal</d:name>
<d:tags>animal,frog,amphibian,cute,insectarium</d:tags>
<d:license>by</d:license>
<d:slug>o6nuih</d:slug>
</metadata></svg>