<svg xmlns="http://www.w3.org/2000/svg" xmlns:xlink="http://www.w3.org/1999/xlink" version="1.1" id="圖層_1" x="0px" y="0px" viewBox="0 0 100 100" enable-background="new 0 0 100 100" xml:space="preserve" width="100"  height="100" ><g><ellipse fill="#998675" cx="68.57" cy="18.92" rx="11.3" ry="12.1"/><ellipse fill="#FFFFFF" cx="68.57" cy="18.92" rx="6.16" ry="6.6"/></g><g><ellipse fill="#998675" cx="31.4" cy="18.92" rx="11.3" ry="12.1"/><ellipse fill="#FFFFFF" cx="31.4" cy="18.92" rx="6.16" ry="6.6"/></g><g><path fill="#F4E6C8" d="M16.01,61.88l-0.03,14.24c0,7.73,6.27,14,14,14h40c7.73,0,14-6.27,14-14V61.86 c-9.45-7.96-20.65-12.77-33.97-12.77C36.68,49.09,25.47,53.91,16.01,61.88z"/><path fill="#736357" d="M84.01,29.42c0-5.8-4.7-10.5-10.5-10.5h-0.03c5.8,0,10.5,4.7,10.5,10.5v32.44 c0.01,0.01,0.02,0.02,0.03,0.02V29.42z"/><path fill="#736357" d="M73.49,18.92H26.51c-5.8,0-10.5,4.7-10.5,10.5v32.47c9.45-7.98,20.66-12.79,34-12.79 c13.32,0,24.52,4.81,33.97,12.77V29.42C83.99,23.62,79.28,18.92,73.49,18.92z"/></g><g><ellipse cx="34.13" cy="39.86" rx="4.63" ry="6.87"/><ellipse cx="65.84" cy="39.86" rx="4.63" ry="6.87"/></g><g><path fill="#998675" d="M50.53,59.93c-0.23,1.03-1.78,7.95-8.32,10.36c-0.59,0.22-7.01,2.46-11.84-1.66 c-4.1-3.5-4.71-9.57-2.64-13.94c3.36-7.09,12.41-6.81,13.75-6.75c1.83,0.09,5.74,0.29,8.02,3.26 C51.81,54.21,50.94,58.11,50.53,59.93z"/><path fill="#998675" d="M49.44,59.93c0.23,1.03,1.78,7.95,8.32,10.36c0.59,0.22,7.01,2.46,11.84-1.66c4.1-3.5,4.71-9.57,2.64-13.94 c-3.36-7.09-12.41-6.81-13.75-6.75c-1.83,0.09-5.74,0.29-8.02,3.26C48.16,54.21,49.03,58.11,49.44,59.93z"/></g><path d="M55.73,50.57c0,3.17-2.57,5.74-5.74,5.74c-3.17,0-5.74-2.57-5.74-5.74c0-3.17,2.57-3.41,5.74-3.41 C53.16,47.16,55.73,47.39,55.73,50.57z"/><g><path fill="none" stroke="#000000" stroke-width="3.5" stroke-linecap="round" stroke-linejoin="round" stroke-miterlimit="10" d=" M60.99,53.98c5.44,0.49,10.79,1.33,16,2.51"/><path fill="none" stroke="#000000" stroke-width="3.5" stroke-linecap="round" stroke-linejoin="round" stroke-miterlimit="10" d=" M60.38,59.97c4.96,1.58,9.76,3.46,14.38,5.6"/><path fill="none" stroke="#000000" stroke-width="3.5" stroke-linecap="round" stroke-linejoin="round" stroke-miterlimit="10" d=" M38.99,53.98c-5.44,0.49-10.79,1.33-16,2.51"/><path fill="none" stroke="#000000" stroke-width="3.5" stroke-linecap="round" stroke-linejoin="round" stroke-miterlimit="10" d=" M39.59,59.97c-4.96,1.58-9.76,3.46-14.38,5.6"/></g><metadata xmlns:d="https://loading.io/stock/">
<d:name>animal</d:name>
<d:tags>animal,otter,zoo,cute,river,sea,wild</d:tags>
<d:license>by</d:license>
<d:slug>9zc452</d:slug>
</metadata></svg>