<svg xmlns="http://www.w3.org/2000/svg" xmlns:xlink="http://www.w3.org/1999/xlink" version="1.1" id="圖層_1" x="0px" y="0px" viewBox="0 0 100 100" enable-background="new 0 0 100 100" xml:space="preserve" width="100"  height="100" ><g><circle fill="#333435" cx="27.18" cy="20.83" r="13.33"/><circle fill="#333435" cx="72.82" cy="20.83" r="13.33"/></g><g><path fill="#F2F2F3" d="M26.4,20.83c-5.82,0-10.54,4.72-10.54,10.54v32.22v10.4c0,9.12,7.46,16.51,16.66,16.51h34.97 c9.2,0,16.66-7.39,16.66-16.51v-10.4V31.37c0-5.82-4.72-10.54-10.54-10.54H26.4z"/><path fill="#333435" d="M81.2,83.35c1.85-2.66,2.94-5.88,2.94-9.36v-3.43c-0.96-0.55-2.07-0.86-3.24-0.86 c-3.48,0-6.95,0.52-10.25,1.62c-6.49,2.17-13.43,3.34-20.65,3.34s-14.16-1.18-20.65-3.34c-3.3-1.1-6.77-1.62-10.25-1.62 c-1.18,0-2.28,0.31-3.24,0.86v3.43c0,3.48,1.09,6.7,2.94,9.36C33.03,80.39,66.97,80.39,81.2,83.35z"/></g><g><path fill="none" stroke="#000000" stroke-width="3.5" stroke-linecap="round" stroke-miterlimit="10" d="M39.96,59.17 c4.1,5.68,5.29,2.52,8.64,0.41c0.82-0.52,2.02-0.59,2.79,0c2.76,2.11,4.54,5.26,8.64-0.41"/><line fill="none" stroke="#000000" stroke-width="3.5" stroke-linecap="round" stroke-miterlimit="10" x1="50" y1="51.9" x2="50" y2="59.17"/><ellipse cx="50" cy="51.36" rx="5.02" ry="4"/></g><g><path fill="#333435" d="M45.2,40.69c-0.6,5.65-5.28,12.46-12.47,12.47c-7.14,0.01-13.06-6.69-12.47-12.47 c0.51-5.03,5.8-7.89,7.83-8.99c1.72-0.93,8.63-4.67,13.49-1.16C45.85,33.63,45.28,39.99,45.2,40.69z"/><circle fill="#FFFFFF" cx="35.67" cy="38.78" r="6.49"/><circle cx="35.67" cy="38.75" r="4.1"/></g><g><path fill="#333435" d="M54.8,40.69c0.6,5.65,5.28,12.46,12.47,12.47c7.14,0.01,13.06-6.69,12.47-12.47 c-0.51-5.03-5.8-7.89-7.83-8.99c-1.72-0.93-8.63-4.67-13.49-1.16C54.15,33.63,54.72,39.99,54.8,40.69z"/><circle fill="#FFFFFF" cx="64.33" cy="38.78" r="6.49"/><circle cx="64.33" cy="38.75" r="4.1"/></g><metadata xmlns:d="https://loading.io/stock/">
<d:name>animal</d:name>
<d:tags>animal,bear,panda,cute,zoo</d:tags>
<d:license>by</d:license>
<d:slug>p7kkze</d:slug>
</metadata></svg>