<svg xmlns="http://www.w3.org/2000/svg" xmlns:xlink="http://www.w3.org/1999/xlink" version="1.1" id="圖層_1" x="0px" y="0px" viewBox="0 0 100 100" enable-background="new 0 0 100 100" xml:space="preserve" width="100"  height="100" ><g><circle fill="#754C24" cx="50" cy="12.76" r="10.26"/><circle fill="#754C24" cx="31.38" cy="17.75" r="10.26"/><circle fill="#754C24" cx="17.75" cy="31.38" r="10.26"/><circle fill="#754C24" cx="12.76" cy="50" r="10.26"/><circle fill="#754C24" cx="17.75" cy="68.62" r="10.26"/><circle fill="#754C24" cx="31.38" cy="82.25" r="10.26"/><circle fill="#754C24" cx="50" cy="87.24" r="10.26"/><circle fill="#754C24" cx="68.62" cy="82.25" r="10.26"/><circle fill="#754C24" cx="82.25" cy="68.62" r="10.26"/><circle fill="#754C24" cx="87.24" cy="50" r="10.26"/><circle fill="#754C24" cx="82.25" cy="31.38" r="10.26"/><circle fill="#754C24" cx="68.62" cy="17.75" r="10.26"/><circle fill="#754C24" cx="50" cy="50" r="35.09"/></g><g><circle fill="#FFE219" cx="35.93" cy="31.1" r="9.46"/><circle fill="#FFFFFF" cx="35.93" cy="31.1" r="5.16"/></g><g><circle fill="#FFFFFF" cx="64.07" cy="31.1" r="5.16"/><circle fill="#FFE219" cx="64.07" cy="31.1" r="9.46"/><circle fill="#FFFFFF" cx="64.07" cy="31.1" r="5.16"/></g><path fill="#FFE219" d="M60.67,78.04H39.33c-7.22,0-13.08-5.86-13.08-13.08V34.63c0-1.81,1.46-3.27,3.27-3.27h40.96 c1.81,0,3.27,1.46,3.27,3.27v30.33C73.75,72.18,67.89,78.04,60.67,78.04z"/><g><ellipse cx="37.91" cy="44.01" rx="3.68" ry="4.05"/><ellipse cx="62.09" cy="44.01" rx="3.68" ry="4.05"/></g><g><path fill="#F2F2F3" stroke="#000000" stroke-width="3.5" stroke-linecap="round" stroke-linejoin="round" stroke-miterlimit="10" d=" M40,56c-1.44,1.13-2.38,2.89-2.38,4.86c0,3.41,2.77,6.18,6.18,6.18c3.41,0,6.18-2.77,6.18-6.18c0,3.41,2.77,6.18,6.18,6.18 c3.41,0,6.18-2.77,6.18-6.18c0-1.98-0.93-3.73-2.38-4.86"/><line fill="none" stroke="#000000" stroke-width="3.5" stroke-linecap="round" stroke-miterlimit="10" x1="50" y1="54.49" x2="50" y2="60.25"/><ellipse cx="50" cy="54.06" rx="3.98" ry="3.17"/></g><metadata xmlns:d="https://loading.io/stock/">
<d:name>animal</d:name>
<d:tags>animal,zoo,lion,feloidea,cute,cats</d:tags>
<d:license>by</d:license>
<d:slug>l3fhp6</d:slug>
</metadata></svg>