<svg xmlns="http://www.w3.org/2000/svg" xmlns:xlink="http://www.w3.org/1999/xlink" version="1.1" id="Layer_1" x="0px" y="0px" viewBox="0 0 100 100" enable-background="new 0 0 100 100" xml:space="preserve" width="100"  height="100" ><g><path fill="#F8AFB4" stroke="#333435" stroke-width="3.5" stroke-linecap="round" stroke-linejoin="round" stroke-miterlimit="10" d=" M63,27.5C63,39.37,50,50,50,50S37,39.37,37,27.5c0-8.64,3.08-15.08,7.52-18.5C44.43,9,50,14,50,14s5.57-5,5.48-5 C59.92,12.42,63,18.86,63,27.5z"/><line fill="none" stroke="#333435" stroke-width="3.5" stroke-linecap="round" stroke-linejoin="round" stroke-miterlimit="10" x1="50" y1="29" x2="50" y2="50"/></g><g><path fill="#F8AFB4" stroke="#333435" stroke-width="3.5" stroke-linecap="round" stroke-linejoin="round" stroke-miterlimit="10" d=" M32.62,30.68C43.91,34.35,50,50,50,50s-14.12,9.08-25.42,5.41c-8.21-2.67-13.39-7.59-15.27-12.87c-0.03,0.09,6.45-3.67,6.45-3.67 s-3.03-6.84-3.06-6.76C17.32,28.95,24.41,28.01,32.62,30.68z"/><line fill="none" stroke="#333435" stroke-width="3.5" stroke-linecap="round" stroke-linejoin="round" stroke-miterlimit="10" x1="30.03" y1="43.51" x2="50" y2="50"/></g><g><path fill="#F8AFB4" stroke="#333435" stroke-width="3.5" stroke-linecap="round" stroke-linejoin="round" stroke-miterlimit="10" d=" M26.26,60.56C33.24,50.96,50,50,50,50s4.27,16.24-2.71,25.84c-5.08,6.99-11.36,10.39-16.96,10.55c0.08,0.05-1.49-7.27-1.49-7.27 s-7.45,0.77-7.37,0.83C19.88,74.57,21.18,67.55,26.26,60.56z"/><line fill="none" stroke="#333435" stroke-width="3.5" stroke-linecap="round" stroke-linejoin="round" stroke-miterlimit="10" x1="37.66" y1="66.99" x2="50" y2="50"/></g><g><path fill="#F8AFB4" stroke="#333435" stroke-width="3.5" stroke-linecap="round" stroke-linejoin="round" stroke-miterlimit="10" d=" M52.71,75.84C45.73,66.24,50,50,50,50s16.76,0.96,23.74,10.56c5.08,6.99,6.37,14.01,4.79,19.39c0.07-0.06-7.37-0.83-7.37-0.83 s-1.57,7.32-1.49,7.27C64.06,86.24,57.78,82.83,52.71,75.84z"/><line fill="none" stroke="#333435" stroke-width="3.5" stroke-linecap="round" stroke-linejoin="round" stroke-miterlimit="10" x1="62.34" y1="66.99" x2="50" y2="50"/></g><g><path fill="#F8AFB4" stroke="#333435" stroke-width="3.5" stroke-linecap="round" stroke-linejoin="round" stroke-miterlimit="10" d=" M75.42,55.41C64.12,59.08,50,50,50,50s6.09-15.65,17.38-19.32c8.21-2.67,15.3-1.73,19.92,1.43c-0.03-0.09-3.06,6.76-3.06,6.76 s6.48,3.75,6.45,3.67C88.81,47.82,83.63,52.74,75.42,55.41z"/><line fill="none" stroke="#333435" stroke-width="3.5" stroke-linecap="round" stroke-linejoin="round" stroke-miterlimit="10" x1="69.97" y1="43.51" x2="50" y2="50"/></g><metadata xmlns:d="https://loading.io/stock/">
<d:name>sakura</d:name>
<d:tags>sakura,flower,petal,cherry blossom,bloom,plum,peach</d:tags>
<d:license>by</d:license>
<d:slug>hbspcp</d:slug>
</metadata></svg>