<svg xmlns="http://www.w3.org/2000/svg" version="1.1" xmlns:xlink="http://www.w3.org/1999/xlink" width="512" height="512" x="0" y="0" viewBox="0 0 60 60" style="enable-background:new 0 0 512 512" xml:space="preserve" class=""><g transform="matrix(0.9800000000000002,0,0,0.9800000000000002,0.600000013165122,0.6000853719073547)"><g fill="none" fill-rule="nonzero"><g transform="translate(1 1)" fill="none"><path fill="#FF9801" d="m23.65 45.63-3.92 4.53-3.75-3.24-4.57-3.96-3.78-3.27 3.93-4.53 2.27 1.96z" opacity="1" data-original="#ff9801" class=""></path><path fill="#607D8B" d="m29 35-7.61 8.66-7.56-6.54 8.51-9.7zM50.54 9.62a7.808 7.808 0 0 1-1.49 2.56L35.66 27.42 29 19.82 41.12 6 46.07.35a1 1 0 0 1 1.41-.11l.76.66a8 8 0 0 1 2.3 8.72z" opacity="1" data-original="#607d8b" class=""></path><path fill="#37474F" d="m48.24.9-.76-.66a1 1 0 0 0-1.41.11l-.646.737A7.988 7.988 0 0 1 47.54 9.62a7.808 7.808 0 0 1-1.49 2.56L34.162 25.711l1.5 1.709L49.05 12.18a7.808 7.808 0 0 0 1.49-2.56A8 8 0 0 0 48.24.9z" opacity="1" data-original="#37474f" class=""></path><path fill="#FFDC00" d="M9.99 53.82a4 4 0 1 1-7.01-2.44 4.016 4.016 0 0 1 5.64-.4 3.958 3.958 0 0 1 1.37 2.84z" opacity="1" data-original="#ffdc00" class=""></path><path fill="#91562D" d="m15.98 46.92-5.99 6.9a3.982 3.982 0 0 0-4.74-3.74l6.16-7.12z" opacity="1" data-original="#91562d" class=""></path><path fill="#FFDC00" d="m11.56 35.16-3.93 4.53a2 2 0 1 1-3.02-2.62l2.28-2.63 1.64-1.9a2.016 2.016 0 0 1 1.52-.7c.478 0 .94.174 1.3.49a2.01 2.01 0 0 1 .21 2.83z" opacity="1" data-original="#ffdc00" class=""></path><rect width="4" height="10" x="21.203" y="44.205" fill="#FFDC00" rx="2" transform="rotate(40.9 23.194 49.162)" opacity="1" data-original="#ffdc00" class=""></rect><path fill="#FF9801" d="m50.37 39.69-3.78 3.27-4.57 3.96-3.75 3.24-3.92-4.53 9.82-8.51 2.27-1.96z" opacity="1" data-original="#ff9801" class=""></path><path fill="#7F8E94" d="m44.17 37.12-7.56 6.54L29 35l-6.66-7.58L8.95 12.18a7.808 7.808 0 0 1-1.49-2.56A8 8 0 0 1 9.76.9l.76-.66a1 1 0 0 1 1.41.11L16.88 6 29 19.82l6.66 7.6z" opacity="1" data-original="#7f8e94" class=""></path><path fill="#545C60" d="M11.93.35a1 1 0 0 0-1.41-.11L9.76.9c-.067.058-.12.127-.184.187 5 5.707 24.032 27.413 31.594 36.033l-5.856 5.066 1.3 1.474 7.56-6.54C32.962 24.345 15.743 4.7 11.93.35z" opacity="1" data-original="#545c60" class=""></path><path fill="#FFDC00" d="M54.62 57.02a4 4 0 1 1-1.89-6.95l.01.01a3.876 3.876 0 0 1 2.28 1.3 3.993 3.993 0 0 1-.4 5.64z" opacity="1" data-original="#ffdc00" class=""></path><path fill="#FEC108" d="M55.02 51.38a3.876 3.876 0 0 0-2.28-1.3l-.01-.01a3.945 3.945 0 0 0-2.212.242c.578.23 1.093.597 1.5 1.068a3.956 3.956 0 0 1-1.518 6.31 3.989 3.989 0 0 0 4.523-6.31z" opacity="1" data-original="#fec108" class=""></path><path fill="#91562D" d="M52.73 50.07a3.991 3.991 0 0 0-4.72 3.75l-5.99-6.9 4.57-3.96z" opacity="1" data-original="#91562d" class=""></path><path fill="#6D4122" d="m46.59 42.96-1.716 1.487 4.856 5.623a3.976 3.976 0 0 0-3.35.91 4.1 4.1 0 0 0-.433.463l2.063 2.377a3.991 3.991 0 0 1 4.72-3.75z" opacity="1" data-original="#6d4122" class=""></path><path fill="#FFDC00" d="M53.19 39.89a1.988 1.988 0 0 1-2.82-.2l-3.93-4.53a2.01 2.01 0 0 1 .21-2.83c.36-.316.822-.49 1.3-.49a2.016 2.016 0 0 1 1.52.7l1.64 1.9 2.28 2.63a1.987 1.987 0 0 1-.2 2.82z" opacity="1" data-original="#ffdc00" class=""></path><rect width="4" height="10" x="32.798" y="44.204" fill="#FFDC00" rx="2" transform="scale(-1) rotate(-40.9 -131.924 93.259)" opacity="1" data-original="#ffdc00" class=""></rect><path fill="#F44335" d="m22.34 27.42-8.51 9.7-2.27-1.96a2.01 2.01 0 0 0-.21-2.83 1.971 1.971 0 0 0-1.3-.49 2.016 2.016 0 0 0-1.52.7l-1.64 1.9L6 30l-3 1 1-4H0l2-3-2-2 2-2-2-3h4l-1-4 3 1 1.46-4.38c.329.94.835 1.81 1.49 2.56zM58 22l-2 2 2 3h-4l1 4-3-1-.89 4.44-1.64-1.9a2.016 2.016 0 0 0-1.52-.7c-.478 0-.94.174-1.3.49a2.01 2.01 0 0 0-.21 2.83l-2.27 1.96-8.51-9.7 13.39-15.24a7.808 7.808 0 0 0 1.49-2.56L52 14l3-1-1 4h4l-2 3z" opacity="1" data-original="#f44335" class=""></path><g fill="#C81E1E"><path d="m54 17 1-4-3 1-.143-.429L51 17zM51 27l.889 3.555L52 30l3 1-1-4zM56 20l2-3h-3l-2 3 2 2-2 2 2 3h3l-2-3 2-2z" fill="#C81E1E" opacity="1" data-original="#c81e1e"></path></g><path fill="#F44335" d="M41.12 6 29 19.82 16.88 6H21l-1-3 4 1V0l3 2 2-2 2 2 3-2v4l4-1-1 3z" opacity="1" data-original="#f44335" class=""></path></g><g fill="#000"><path d="M42.442 16.857a1 1 0 0 0 .757-.345l1.963-2.269a1 1 0 0 0-1.513-1.308L41.686 15.2a1 1 0 0 0 .756 1.654z" fill="#000000" opacity="1" data-original="#000000" class=""></path><path d="m22.009 28.42-7.277 8.3-.9-.782a2.994 2.994 0 0 0-5.052-3.051l-3.93 4.532a2.987 2.987 0 0 0 3.739 4.559L11 44.063l-5.286 6.108a5 5 0 1 0 5.066 8.1 4.942 4.942 0 0 0 1.19-3.057l5.11-5.886 2.373 2.055a2.99 2.99 0 0 0 2.78 4.089c.074 0 .147 0 .221-.008a2.98 2.98 0 0 0 2.052-1.029l3.928-4.535a2.991 2.991 0 0 0-3.744-4.564l-.888-.768L30 37.514l6.2 7.053-.888.769a2.994 2.994 0 0 0-3.746 4.564l3.927 4.536a2.98 2.98 0 0 0 2.052 1.029c.074 0 .147.008.221.008a2.981 2.981 0 0 0 2.78-4.089l2.373-2.055 5.11 5.886a4.942 4.942 0 0 0 1.19 3.057 5 5 0 1 0 5.053-8.1L49 44.064l2.41-2.086a2.991 2.991 0 0 0 3.739-4.56l-3.927-4.535a2.993 2.993 0 0 0-5.052 3.05l-.9.779L38 28.415l12.81-14.581a9.007 9.007 0 0 0-.91-12.689l-.769-.664a2 2 0 0 0-2.813.21L30 19.3 13.687.691a1.987 1.987 0 0 0-1.369-.686 1.966 1.966 0 0 0-1.452.483l-.757.654a9.011 9.011 0 0 0-.908 12.7zm1.332 1.515 2.685 3.055-6.755 7.65-3.025-2.618zm-2.715 19.818-2.991-2.588-4.57-3.96-.014-.008-3.01-2.606 2.618-3.025 10.585 9.164zM7.19 40.379a1 1 0 0 1-.826-1.651l3.927-4.537a1 1 0 0 1 .685-.342h.073a1 1 0 0 1 .753 1.654l-3.927 4.534a.992.992 0 0 1-.685.342zm2.078 16.585a3 3 0 1 1-2.483-4.957C6.858 52 6.932 52 7 52a2.974 2.974 0 0 1 1.959.731 3 3 0 0 1 .309 4.233zm2.193-4.213A4.888 4.888 0 0 0 8.336 50.2l4.174-4.825 3.059 2.647zm14.633-5.812h.073a1 1 0 0 1 .755 1.654L23 53.127a.993.993 0 0 1-.684.343 1 1 0 0 1-.826-1.652l3.928-4.536c.17-.2.414-.323.676-.343zm-3.8-3.684-1.51-1.307 6.572-7.443L28.669 36zm15.975 2.165 7.56-6.545 1.51-1.307 2.618 3.025-3.008 2.607-.014.008-4.57 3.96-2.99 2.588-2.619-3.024 1.509-1.307zm.147 7.809a1 1 0 0 1-1.41-.1l-3.927-4.536a1 1 0 0 1 .755-1.654h.073a.993.993 0 0 1 .684.343l3.927 4.536a1 1 0 0 1-.1 1.411zm17.576 1.986a3 3 0 1 1-5.985-.43 3 3 0 0 1 5.985.43zM51.66 50.2a4.89 4.89 0 0 0-3.121 2.552l-4.108-4.732 3.058-2.647zM48.3 34.09a.991.991 0 0 1 .653-.244h.073a1 1 0 0 1 .685.342l3.927 4.537a1 1 0 1 1-1.511 1.309L48.2 35.5a1 1 0 0 1 .1-1.41zM45.153 5.045a5.139 5.139 0 0 1 1.577 3.06 2.682 2.682 0 0 1-.462 1.8 1 1 0 1 0 1.512 1.31 4.589 4.589 0 0 0 .946-3.259 7.091 7.091 0 0 0-2.249-4.427L47.825 2l.761.66a7 7 0 0 1 .714 9.86L36.666 26.9l-1.29-1.47 5.194-5.886a1 1 0 0 0-1.5-1.324l-5.023 5.693-2.714-3.1zm-33.735-2.39.761-.65 1.342 1.531a7.087 7.087 0 0 0-2.247 4.425 4.589 4.589 0 0 0 .946 3.259 1 1 0 1 0 1.512-1.31 2.682 2.682 0 0 1-.462-1.8 5.135 5.135 0 0 1 1.576-3.059l28.913 32.97-3.027 2.621-19.807-22.423a1 1 0 1 0-1.5 1.324L39.22 41.951l-1.51 1.307-27-30.729a7.008 7.008 0 0 1 .708-9.874z" fill="#000000" opacity="1" data-original="#000000" class=""></path><path d="M16.8 16.512a1.002 1.002 0 0 0 1.514-1.312l-1.963-2.268a1 1 0 0 0-1.513 1.308zM.293 23.707l1.42 1.42-1.545 2.318A1 1 0 0 0 1 29h2.719l-.689 2.757a1 1 0 0 0 1.286 1.192l3-1a1.001 1.001 0 0 0-.632-1.9l-1.272.424.558-2.232A1 1 0 0 0 5 27H2.869l.963-1.445a1 1 0 0 0-.125-1.262L2.414 23l1.293-1.293a1 1 0 0 0 .125-1.262L2.869 19H5a1 1 0 0 0 .97-1.243l-.558-2.232 1.272.424a1.001 1.001 0 1 0 .632-1.9l-3-1a1 1 0 0 0-1.286 1.194L3.719 17H1a1 1 0 0 0-.832 1.555l1.545 2.318-1.42 1.42a1 1 0 0 0 0 1.414zM58.287 20.873l1.545-2.318A1 1 0 0 0 59 17h-2.719l.689-2.757a1 1 0 0 0-1.286-1.192l-3 1a1.001 1.001 0 1 0 .632 1.9l1.272-.424-.558 2.232A1 1 0 0 0 55 19h2.131l-.963 1.445a1 1 0 0 0 .125 1.262L57.586 23l-1.293 1.293a1 1 0 0 0-.125 1.262L57.131 27H55a1 1 0 0 0-.97 1.243l.558 2.232-1.272-.424a1.001 1.001 0 0 0-.632 1.9l3 1a1 1 0 0 0 1.286-1.192L56.281 29H59a1 1 0 0 0 .832-1.555l-1.545-2.318 1.42-1.42a1 1 0 0 0 0-1.414zM21.051 7.316a1.001 1.001 0 1 0 1.9-.632l-.424-1.272 2.232.558A1 1 0 0 0 26 5V2.869l1.445.963a1 1 0 0 0 1.262-.125L30 2.414l1.293 1.293a1 1 0 0 0 1.262.125L34 2.869V5a1 1 0 0 0 1.243.97l2.232-.558-.424 1.272a1.001 1.001 0 1 0 1.9.632l1-3a1 1 0 0 0-1.194-1.286L36 3.719V1a1 1 0 0 0-1.555-.832l-2.318 1.545-1.42-1.42a1 1 0 0 0-1.414 0l-1.42 1.42L25.555.168A1 1 0 0 0 24 1v2.719l-2.757-.689a1 1 0 0 0-1.192 1.286z" fill="#000000" opacity="1" data-original="#000000" class=""></path></g></g></g></svg>