<?xml version="1.0" encoding="utf-8"?>
<!-- Generator: Adobe Illustrator 28.0.0, SVG Export Plug-In . SVG Version: 6.00 Build 0)  -->
<svg version="1.1" id="Layer_1" xmlns="http://www.w3.org/2000/svg" xmlns:xlink="http://www.w3.org/1999/xlink" x="0px" y="0px"
	 viewBox="0 0 111.2 166" style="enable-background:new 0 0 111.2 166;" xml:space="preserve">
<style type="text/css">
	.st0{fill:#5D9948;}
	.st1{fill:#81B64C;}
	.st2{fill:#B2E068;}
</style>
<g>
	<path class="st0" d="M95.7,119.8C67.8,98.5,70.9,80.1,70.5,72.5h17c2-3.7,3-7.1,3-11.4L71.2,48.4l0,0c6.7-4.9,11.1-12.7,11.1-21.6
		c0-11.2-6.9-20.8-16.7-24.8c-3.1-1.2-25,70.5-25,70.5c-0.1,1.7-0.1,3.8-0.1,6.4c0,7.1,17.5,6.1,16.6,12.3
		c-1.4,9.4-1.7,16.6-9.8,39.2c-5.5,15.3-42,0-44.6,7.5C1,143.1,0,149,0,155.3c0,0.7,1.5,10.8,55.6,10.8s55.6-10.1,55.6-10.8
		C111.2,139.9,105.5,127.3,95.7,119.8L95.7,119.8z"/>
	<path class="st1" d="M54.6,129.4c3-13.7,5.7-28.3,7.3-37c2-10.9-14.5-12.9-21.3-13.9c-0.3,9.3-2.9,24.4-25.1,41.3
		c-6,4.6-10.4,11.1-13,18.9c6,2.9,14,4.7,26.3,4.7C36.7,143.4,51.3,144.4,54.6,129.4z"/>
	<path class="st1" d="M66.2,72.5c2.6-6.8,2.3-11.4,2.3-11.4L57.6,48.4c11.6-5,18.6-14.3,18.6-25.1c0-8.7-4.1-16.4-10.5-21.2l0,0
		c-3.1-1.3-6.5-2-10.1-2C40.8,0,28.8,12,28.8,26.7c0,8.9,4.4,16.8,11.1,21.6L20.6,61.1c0,4.3,1,7.7,3,11.4L66.2,72.5L66.2,72.5z"/>
	<path class="st2" d="M54.1,5.4C69.5,7.8,47,25.7,39.9,24.9C33.1,24.1,39.6,3.2,54.1,5.4z"/>
</g>
</svg>
