<svg xmlns="http://www.w3.org/2000/svg" version="1.1" xmlns:xlink="http://www.w3.org/1999/xlink" width="512" height="512" x="0" y="0" viewBox="0 0 512 512" style="enable-background:new 0 0 512 512" xml:space="preserve" class=""><g><path fill="#E4EDEF" d="M470.063 0H41.938C18.777 0 0 18.777 0 41.938v428.125C0 493.223 18.777 512 41.938 512h428.125c23.16 0 41.937-18.777 41.937-41.938V41.938C512 18.777 493.223 0 470.062 0zm0 0" opacity="1" data-original="#e4edef" class=""></path><g fill="#5B5B68"><path d="M256 0h128v128H256zM384 128h128v128H384zM0 256h128v128H0zM128 384h128v128H128zM512 384v86.066C512 493.223 493.223 512 470.059 512H384V384zM256 256h128v128H256zM128 128h128v128H128zM128 0v128H0V41.941C0 18.777 18.777 0 41.934 0zM338.203 226.504h-7.492v-8.805c11.89-3.406 20.598-14.347 20.598-27.332 0-15.707-28.434-41.363-28.434-41.363s-28.438 25.656-28.438 41.363c0 12.985 8.708 23.926 20.602 27.332v8.805h-7.492a7.836 7.836 0 1 0 0 15.672h30.656c4.328 0 7.836-3.508 7.836-7.836s-3.508-7.836-7.836-7.836zm0 0" fill="#5B5B68" opacity="1" data-original="#5b5b68" class=""></path></g><path fill="#E4EDEF" d="M227.527 476.191v-55.379l-21.945 21.946L192 413.5l-13.582 29.258-21.945-21.945v55.378zm0 0" opacity="1" data-original="#e4edef" class=""></path><path fill="#5B5B68" d="M484.488 96.395v-55.38l-21.945 21.942-13.582-29.258-13.582 29.258-21.945-21.941v55.379zM476.824 346.664h-4.722L458 324.114c9.207-3.005 15.86-11.65 15.86-21.856 0-12.695-10.294-22.988-22.989-22.988s-22.988 10.293-22.988 22.988c0 10.203 6.652 18.851 15.855 21.855l-14.101 22.551h-4.719a7.839 7.839 0 1 0 0 15.676h51.906a7.84 7.84 0 0 0 7.84-7.84c0-4.324-3.512-7.836-7.84-7.836zm0 0" opacity="1" data-original="#5b5b68" class=""></path><path fill="#E4EDEF" d="M92.309 92.93h-4.723L73.484 70.375c9.204-3 15.856-11.648 15.856-21.855 0-12.696-10.29-22.989-22.985-22.989S43.367 35.824 43.367 48.52c0 10.207 6.653 18.855 15.856 21.855L45.12 92.93h-4.723c-4.328 0-7.836 3.507-7.836 7.836s3.508 7.836 7.836 7.836h51.91c4.329 0 7.837-3.508 7.837-7.836s-3.508-7.836-7.836-7.836zm0 0" opacity="1" data-original="#e4edef" class=""></path></g></svg>