<?xml version="1.0" encoding="utf-8"?>
<!-- Generator: Adobe Illustrator 28.0.0, SVG Export Plug-In . SVG Version: 6.00 Build 0)  -->
<svg version="1.1" id="Layer_1" xmlns="http://www.w3.org/2000/svg" xmlns:xlink="http://www.w3.org/1999/xlink" x="0px" y="0px"
	 viewBox="0 0 373 512" style="enable-background:new 0 0 373 512;" xml:space="preserve">
<style type="text/css">
	.st0{fill:#FFFFFF;}
	.st1{fill:#5D9948;}
	.st2{fill:#81B64C;}
	.st3{fill:#B2E068;}
</style>
<g>
	<path class="st0" d="M315.4,315.1c-18.3-13.9-31.2-27.9-38.7-41.7h14.4c2,0,3.8-1,4.8-2.7c18.7-31.1,26-55.1,23.9-91.2
		c-0.1-1.8-1-3.4-2.5-4.4c-7.7-5.1-21.8-14.4-27.7-18.2c26.8-59.2-7.5-133.6-70.1-151.3c-88.1-29.8-175,67-136,151.3
		c-5.8,3.8-20,13.2-27.7,18.2c-1.5,1-2.4,2.6-2.5,4.4c-2.1,36.1,5.3,60.1,23.9,91.2c1,1.7,2.9,2.7,4.8,2.7h14.4
		C79.1,305.6,22.5,334,11.5,378.6c-46.6,120,55.3,133.6,175,133.4c83.8-0.9,179.8-3.8,185.7-71.5
		C372.3,388.4,351.6,342.7,315.4,315.1L315.4,315.1z"/>
	<path class="st1" d="M288.8,350.1c-71.2-54.2-63.3-101.3-64.2-120.7H268c5.1-9.4,7.7-18.2,7.7-29L226.5,168
		c17.1-12.4,28.2-32.5,28.2-55.2c0-28.6-17.6-53.1-42.6-63.2c-7.9-3.2-63.6,179.8-63.6,179.8c-0.2,4.2-0.2,9.7-0.2,16.3
		c0,18.2,44.7,15.4,42.3,31.5c-3.6,24-4.3,42.3-25,100c-14,38.9-107,0-113.7,19.1c-4.6,13.3-7.1,28.2-7.1,44.3
		c0,1.7,3.7,27.5,141.7,27.5c138,0,141.7-25.8,141.7-27.5C328.3,401.4,313.7,369.1,288.8,350.1z"/>
	<path class="st2" d="M184,374.4c7.7-34.9,14.5-72.1,18.6-94.4c5.2-27.8-37-32.8-54.4-35.3c-0.8,23.8-7.4,62.3-64,105.4
		c-15.2,11.6-26.6,28.2-33.1,48.3c15.3,7.4,35.6,11.9,67,11.9C138.3,410.3,175.6,412.7,184,374.4L184,374.4z"/>
	<path class="st2" d="M213.6,229.4c6.7-17.4,5.8-29,5.8-29L191.6,168c29.6-12.6,47.5-36.4,47.5-64.1c0-22.1-10.5-41.8-26.8-54.2
		c-7.9-3.2-16.6-5-25.7-5c-37.6,0-68.2,30.5-68.2,68.2c0,22.7,11.1,42.8,28.2,55.2l-49.2,32.4c0,10.9,2.6,19.6,7.7,29L213.6,229.4
		L213.6,229.4z"/>
	<path class="st3" d="M182.6,58.5c39.3,6.1-18.1,51.7-36.2,49.5C129.2,106,145.8,52.8,182.6,58.5z"/>
</g>
</svg>
