<?xml version="1.0" encoding="utf-8"?><svg xml:space="preserve" viewBox="0 0 100 100" y="0" x="0" xmlns="http://www.w3.org/2000/svg" id="圖層_1" version="1.1" width="200px" height="200px" xmlns:xlink="http://www.w3.org/1999/xlink" style="width:100%;height:100%;background-size:initial;background-repeat:initial;background-position-y:initial;background-position-x:initial;background-origin:initial;background-image:initial;background-clip:initial;background-attachment:initial;animation-play-state:paused" ><g class="ldl-scale" style="transform-origin:50% 50%;transform:rotate(0deg) scale(0.8, 0.8);animation-play-state:paused" ><path d="M90 14.8v-.4-.2c0-.1-.1-.2-.1-.3v-.1l-.1-.1c-.1-.1-.1-.2-.2-.2-.1-.1-.1-.1-.2-.1l-.1-.1s-.1 0-.1-.1c-.1 0-.1-.1-.2-.1h-.5c-.1 0-.2 0-.3.1h-.1L10.9 45.9c-.5.2-.9.7-.9 1.3 0 .6.3 1.1.8 1.4l15.6 8.6c.2.1.5.2.7.2.3 0 .6-.1.8-.3l48-32.3-37.6 36.8c-.3.3-.4.7-.4 1.1v22.8c0 .6.4 1.2 1 1.4.2.1.3.1.5.1.5 0 .9-.2 1.2-.6l11.4-15 18.9 10.4c.4.2.9.2 1.3.1.4-.2.7-.5.8-1L90 15v-.2z" fill-opacity="0.93" fill="#FFFFFF" style="animation-play-state:paused" ></path>
<metadata xmlns:d="https://loading.io/stock/" style="animation-play-state:paused" ><d:name style="animation-play-state:paused" >paper plane</d:name>


<d:tags style="animation-play-state:paused" >fly,send,fire,take off,aviation,paper plane,web application</d:tags>


<d:license style="animation-play-state:paused" >by</d:license>


<d:slug style="animation-play-state:paused" >1yeaju</d:slug></metadata></g><!-- generated by https://loading.io/ --></svg>